<svg width="23" height="21" viewBox="0 0 23 21" fill="none" xmlns="http://www.w3.org/2000/svg">
<path d="M11.5 6.05273C8.40376 6.05273 5.88477 8.57173 5.88477 11.668C5.88477 14.7642 8.40376 17.2832 11.5 17.2832C14.5962 17.2832 17.1152 14.7642 17.1152 11.668C17.1152 8.57173 14.5962 6.05273 11.5 6.05273ZM11.5 15.4863C9.39456 15.4863 7.68164 13.7734 7.68164 11.668C7.68164 9.56253 9.39456 7.84961 11.5 7.84961C13.6054 7.84961 15.3184 9.56253 15.3184 11.668C15.3184 13.7734 13.6054 15.4863 11.5 15.4863Z" fill="black"/>
<path d="M20.3047 3.35742H16.9996C16.8949 3.35742 16.8006 3.30033 16.7521 3.20797L15.8377 1.28652C15.8352 1.28127 15.8327 1.27606 15.8301 1.27085C15.4761 0.562877 14.7645 0.123047 13.9729 0.123047H9.09111C8.29954 0.123047 7.58789 0.562877 7.23395 1.27089C7.2313 1.2761 7.22878 1.28131 7.22627 1.28657L6.31184 3.2081C6.26332 3.30033 6.16908 3.35742 6.06445 3.35742H2.69531C1.20912 3.35742 0 4.56654 0 6.05273V18.1816C0 19.6678 1.20912 20.877 2.69531 20.877H20.3047C21.7909 20.877 23 19.6678 23 18.1816V6.05273C23 4.56654 21.7909 3.35742 20.3047 3.35742ZM21.2031 18.1816C21.2031 18.677 20.8001 19.08 20.3047 19.08H2.69531C2.19991 19.08 1.79688 18.677 1.79688 18.1816V6.05273C1.79688 5.55734 2.19991 5.1543 2.69531 5.1543H6.06445C6.85598 5.1543 7.56763 4.71451 7.92161 4.00654C7.92426 4.00133 7.92678 3.99608 7.92934 3.99082L8.84377 2.06929C8.89224 1.97702 8.98649 1.91992 9.09111 1.91992H13.9729C14.0775 1.91992 14.1718 1.97702 14.2202 2.06924L15.1347 3.99078C15.1372 3.99603 15.1398 4.00129 15.1424 4.0065C15.4964 4.71447 16.208 5.15425 16.9996 5.15425H20.3047C20.8001 5.15425 21.2031 5.55729 21.2031 6.05269V18.1816Z" fill="black"/>
<path d="M19.4062 6.95117H17.6094V8.74805H19.4062V6.95117Z" fill="black"/>
</svg>
