<svg width="24" height="24" viewBox="0 0 24 24" fill="none" xmlns="http://www.w3.org/2000/svg">
<g clip-path="url(#clip0)">
<path d="M23.1086 7.37476H20.3588V0.937501C20.3588 0.419678 19.9391 0 19.4213 0H0.984361C0.466538 0 0.0468597 0.419678 0.0468597 0.937501V17.5307C0.0468597 18.3618 1.04826 18.778 1.63896 18.2018L5.14617 14.7808H7.42162V19.3744C7.42162 19.8922 7.84148 20.3119 8.35912 20.3119H19.0331L22.4458 23.7248C23.0323 24.3113 24.0463 23.8999 24.0463 23.062V8.31226C24.0462 7.79462 23.6265 7.37476 23.1086 7.37476V7.37476ZM4.76476 12.9058C4.52013 12.9058 4.28521 13.0016 4.11016 13.1723L1.92186 15.3067V1.875H18.4838V7.37476H8.35912C7.8413 7.37476 7.42162 7.79444 7.42162 8.31226V12.9058H4.76476ZM22.1713 20.7986L20.0843 18.7116C19.9085 18.5358 19.6699 18.4371 19.4215 18.4371H9.29662V9.24976H22.1713V20.7986Z" fill="black"/>
</g>
<defs>
<clipPath id="clip0">
<rect width="24" height="24" fill="white"/>
</clipPath>
</defs>
</svg>
