<svg width="18" height="18" viewBox="0 0 18 18" fill="none" xmlns="http://www.w3.org/2000/svg">
<path d="M9 0C4.02574 0 0 4.02528 0 9C0 13.9743 4.02528 18 9 18C13.9743 18 18 13.9747 18 9C18 4.02574 13.9747 0 9 0ZM9 16.8C4.69909 16.8 1.19999 13.3009 1.19999 9C1.19999 4.69905 4.69909 1.19999 9 1.19999C13.3009 1.19999 16.8 4.69909 16.8 9C16.8 13.3009 13.3009 16.8 9 16.8Z" fill="black"/>
<path d="M11.9764 5.22301L7.60574 7.32493C7.48304 7.38392 7.38404 7.48289 7.32505 7.60562L5.22313 11.9763C4.97802 12.486 5.51398 13.0224 6.02388 12.7771L10.3946 10.6751C10.5173 10.6162 10.6163 10.5172 10.6753 10.3945L12.7772 6.02376C13.0222 5.51417 12.4865 4.97765 11.9764 5.22301ZM9.68491 9.68483L7.04644 10.9537L8.31533 8.31525L10.9538 7.04635L9.68491 9.68483Z" fill="black"/>
</svg>
