<svg xmlns="http://www.w3.org/2000/svg" width="45px" height="45px" viewBox="0 0 45 45">
<g>
	<g>
		<path fill="white" d="M31.7,17.3c-0.2-0.3-0.5-0.4-0.8-0.4h-6.1l6.9-15.6c0.1-0.3,0.1-0.6-0.1-0.9C31.6,0.2,31.3,0,30.9,0H12.2
			c-0.3,0-0.5,0.1-0.7,0.3S11.2,0.7,11.3,1l0.5,6.3c0,0.5,0.5,0.9,1,0.9c0.5,0,0.9-0.5,0.9-1l-0.4-5.3h16.3l-6.9,15.6
			c-0.1,0.3-0.1,0.6,0.1,0.9c0.2,0.3,0.5,0.4,0.8,0.4h6.1l-1.7,4.1c-0.2,0.5,0,1,0.5,1.2c0.1,0.1,0.2,0.1,0.4,0.1
			c0.4,0,0.7-0.2,0.9-0.6l2.3-5.4C31.9,17.9,31.9,17.6,31.7,17.3z"/>
	</g>
</g>
<g>
	<g>
		<path fill="white" d="M27.6,26.3c-0.5-0.2-1,0-1.2,0.5l-6.1,13.6l-1.5-15.2c0-0.5-0.5-0.8-0.9-0.8h-2.9L14,13.1c0-0.5-0.5-0.9-1-0.9
			c-0.5,0-0.9,0.5-0.9,1l1,12.2c0,0.5,0.4,0.9,0.9,0.9H17l1.8,17.9c0,0.4,0.4,0.8,0.8,0.8c0,0,0.1,0,0.1,0c0.4,0,0.7-0.2,0.9-0.6
			L28,27.6C28.3,27.1,28,26.5,27.6,26.3z"/>
	</g>
</g>
<g>
	<g>
		<path fill="white" d="M44.7,43.4L1.6,0.3c-0.4-0.4-1-0.4-1.3,0s-0.4,1,0,1.3l43.1,43.1c0.2,0.2,0.4,0.3,0.7,0.3s0.5-0.1,0.7-0.3
			C45.1,44.4,45.1,43.8,44.7,43.4z"/>
	</g>
</g>
</svg>
