<svg width="13" height="30" viewBox="0 0 13 30" fill="none" xmlns="http://www.w3.org/2000/svg">
<path d="M12.3903 12.7712C12.2736 12.6014 12.0808 12.4999 11.8752 12.4999H7.50014V0.62512C7.50014 0.323644 7.28518 0.065693 6.98931 0.0104178C6.69184 -0.0440562 6.39971 0.119366 6.29156 0.400815L0.0414576 16.6506C-0.0322426 16.8429 -0.00660774 17.0589 0.109817 17.2288C0.226509 17.3989 0.419305 17.5001 0.625185 17.5001H5.0002V29.3752C5.0002 29.6764 5.2149 29.9346 5.51103 29.9899C5.54948 29.9968 5.58794 30 5.62559 30C5.87953 30 6.11452 29.8441 6.20851 29.5995L12.4586 13.3494C12.5326 13.1571 12.5067 12.9411 12.3903 12.7712ZM6.25017 26.009V16.875C6.25017 16.5299 5.97059 16.2501 5.62505 16.2501H1.53522L6.25017 3.99103V13.1251C6.25017 13.4701 6.52975 13.7502 6.87502 13.7502H10.9651L6.25017 26.009Z" fill="white"/>
</svg>
