<svg xmlns="http://www.w3.org/2000/svg" width="45px" height="45px" viewBox="0 0 45 45">
<path fill="white" d="M30.9,16.9h-6.1l6.9-15.6c0.1-0.3,0.1-0.6-0.1-0.9C31.6,0.2,31.3,0,30.9,0H12.2c-0.3,0-0.5,0.1-0.7,0.3
	c-0.2,0.2-0.3,0.4-0.2,0.7l0.9,12.2c0,0,0,0,0,0l1,12.2c0,0.5,0.4,0.9,0.9,0.9H17l1.8,17.9c0,0.4,0.4,0.8,0.8,0.8c0,0,0.1,0,0.1,0
	c0.4,0,0.7-0.2,0.9-0.6L28,27.6c0,0,0,0,0-0.1c0,0,0.1-0.1,0.1-0.1l3.7-9.2c0.1-0.3,0.1-0.6-0.1-0.9C31.5,17,31.3,16.9,30.9,16.9z
	 M26.4,26.7C26.4,26.7,26.4,26.7,26.4,26.7c0,0.1-0.1,0.1-0.1,0.1l-6.1,13.6l-1.5-15.2c0-0.5-0.5-0.8-0.9-0.8h-2.9L14,13.1L13.2,1.9
	h16.3l-6.9,15.6c-0.1,0.3-0.1,0.6,0.1,0.9c0.2,0.3,0.5,0.4,0.8,0.4h6.1L26.4,26.7z"/>
</svg>
