<svg width="45" height="45" viewBox="0 0 45 45" fill="none" xmlns="http://www.w3.org/2000/svg">
<g>
	<path fill="white" d="M22.4,24.1c3.5,0,6.4-2.9,6.4-6.4c0-3.5-2.9-6.4-6.4-6.4c-3.5,0-6.4,2.9-6.4,6.4C16,21.2,18.9,24.1,22.4,24.1z
		 M22.4,14.1c2,0,3.6,1.6,3.6,3.6s-1.6,3.6-3.6,3.6c-2,0-3.6-1.6-3.6-3.6S20.4,14.1,22.4,14.1z"/>
	<path fill="white" d="M24,38.4C24,38.4,24.1,38.3,24,38.4c0.1-0.1,0.1-0.2,0.1-0.3c0,0,0-0.1,0-0.1c0-0.1,0-0.2,0-0.3c0,0,0,0,0,0
		c0,0,0,0,0,0c0-0.1,0-0.2,0-0.3c0,0,0-0.1,0-0.1c0-0.1,0-0.1-0.1-0.2c0,0,0-0.1,0-0.1c0-0.1-0.1-0.1-0.1-0.2c0,0,0-0.1-0.1-0.1
		c0,0-0.1-0.1-0.1-0.1c0,0,0,0,0,0L19.1,33c-0.6-0.5-1.4-0.4-1.9,0.2c-0.5,0.6-0.4,1.4,0.2,1.9l1.3,1c-9.4-0.9-15.4-4.8-15.4-8.5
		c0-1.2,0.1-1.8,1-2.7c0.5-0.5,0.5-1.4-0.1-1.9c-0.5-0.5-1.4-0.5-1.9,0.1c-1.5,1.5-1.7,2.8-1.7,4.6c0,5.7,7.9,10.3,18.6,11.2
		l-1.7,1.4c-0.6,0.5-0.7,1.3-0.2,1.9c0.3,0.3,0.7,0.5,1.1,0.5c0.3,0,0.6-0.1,0.9-0.3l4.6-3.6c0,0,0,0,0,0c0,0,0.1-0.1,0.1-0.1
		c0,0,0-0.1,0.1-0.1C24,38.5,24,38.5,24,38.4z"/>
	<path fill="white" d="M42.6,23.4c-0.4-0.6-1.3-0.8-1.9-0.4c-0.6,0.4-0.8,1.3-0.4,1.9c0.8,1.3,1.1,1.8,1.1,3.3c0,3.1-6.1,7-15.1,8
		c-0.8,0.1-1.3,0.8-1.2,1.5c0.1,0.7,0.7,1.2,1.4,1.2c0,0,0.1,0,0.1,0c10.2-1.1,17.5-5.6,17.5-10.7C44.2,25.9,43.6,24.8,42.6,23.4z"
		/>
	<path fill="white" d="M10.1,29.6h24.6c2.3,0,4.1-1.8,4.1-4.1V11.8c0-2.3-1.8-4.1-4.1-4.1h-4.2L28.7,4c-0.5-1.1-1.6-1.8-2.8-1.8H19
		c-1.2,0-2.3,0.7-2.8,1.8l-1.8,3.7h-4.2C7.8,7.7,6,9.5,6,11.8v13.7C6,27.7,7.8,29.6,10.1,29.6z M8.7,11.8c0-0.8,0.6-1.4,1.4-1.4h5
		c0.5,0,1-0.3,1.2-0.8l2.2-4.5C18.6,5.1,18.8,5,19,5h6.9c0.2,0,0.3,0.1,0.4,0.3l2.2,4.5c0.2,0.5,0.7,0.8,1.2,0.8h5
		c0.8,0,1.4,0.6,1.4,1.4v13.7c0,0.8-0.6,1.4-1.4,1.4H10.1c-0.8,0-1.4-0.6-1.4-1.4V11.8z"/>
</g>
</svg>
