<svg width="38" height="35" viewBox="0 0 38 35" fill="none" xmlns="http://www.w3.org/2000/svg">
<path d="M18.8766 18.8764C15.8407 18.8764 13.3708 16.4068 13.3708 13.3707C13.3708 10.3348 15.8407 7.86526 18.8766 7.86526C21.9124 7.86526 24.3823 10.3348 24.3823 13.3707C24.3823 16.4068 21.9124 18.8764 18.8766 18.8764ZM18.8766 10.2248C17.1415 10.2248 15.7304 11.6356 15.7304 13.3707C15.7304 15.1058 17.1415 16.5168 18.8766 16.5168C20.6116 16.5168 22.0227 15.1058 22.0227 13.3707C22.0227 11.6356 20.6116 10.2248 18.8766 10.2248Z" fill="white"/>
<path d="M19.2695 31.8538C8.46435 31.8538 0 27.536 0 22.0225C0 20.5374 0.245402 19.4158 1.50064 18.0834C1.9491 17.6084 2.69452 17.588 3.16977 18.0333C3.64301 18.48 3.66663 19.2272 3.21989 19.7021C2.48369 20.481 2.35955 20.9654 2.35955 22.0225C2.35955 25.6309 9.15505 29.4943 19.2695 29.4943C19.9208 29.4943 20.4493 30.0228 20.4493 30.6741C20.4493 31.3253 19.9208 31.8538 19.2695 31.8538Z" fill="white"/>
<path d="M22.4708 31.643C21.8763 31.643 21.365 31.1948 21.2988 30.5891C21.2296 29.941 21.6968 29.3606 22.3466 29.2898C30.1502 28.4499 35.3933 25.0583 35.3933 22.4157C35.3933 21.0755 35.1415 20.6333 34.4134 19.5495C34.0499 19.0085 34.193 18.2755 34.7357 17.912C35.2752 17.5471 36.0099 17.692 36.3731 18.2346C37.2306 19.5135 37.7528 20.432 37.7528 22.4157C37.7528 26.8139 31.379 30.6913 22.5984 31.6352C22.5557 31.6398 22.5134 31.643 22.4708 31.643Z" fill="white"/>
<path d="M29.4942 23.5954H8.25831C6.30604 23.5954 4.71899 22.0084 4.71899 20.0561V8.25841C4.71899 6.30614 6.30604 4.71909 8.25831 4.71909H11.8558L13.4541 1.52109C13.9227 0.58355 14.8666 0 15.9159 0H21.8366C22.8859 0 23.8298 0.58355 24.2984 1.52109L25.8967 4.71909H29.4942C31.4465 4.71909 33.0335 6.30614 33.0335 8.25841V20.0561C33.0335 22.0084 31.4465 23.5954 29.4942 23.5954ZM8.25831 7.07864C7.60707 7.07864 7.07854 7.60717 7.07854 8.25841V20.0561C7.07854 20.7074 7.60707 21.2359 8.25831 21.2359H29.4942C30.1455 21.2359 30.674 20.7074 30.674 20.0561V8.25841C30.674 7.60717 30.1455 7.07864 29.4942 7.07864H25.1683C24.7216 7.07864 24.3125 6.82546 24.1129 6.42596L22.1875 2.57672C22.1215 2.44279 21.9861 2.35954 21.8366 2.35954H15.9159C15.7664 2.35954 15.631 2.44279 15.5633 2.57672L13.6396 6.42596C13.44 6.82546 13.031 7.07864 12.5842 7.07864H8.25831Z" fill="white"/>
<path d="M15.3371 35C14.9912 35 14.6482 34.8488 14.4154 34.5579C14.0079 34.0483 14.0897 33.3072 14.5995 32.9L17.3804 30.6741L14.5995 28.4482C14.0914 28.0409 14.0096 27.2998 14.4154 26.7903C14.8213 26.2822 15.5621 26.199 16.0733 26.6062L20.0058 29.7524C20.2858 29.9773 20.4494 30.3155 20.4494 30.6741C20.4494 31.0327 20.2858 31.3708 20.0075 31.5943L16.0748 34.7405C15.8562 34.915 15.5967 35 15.3371 35Z" fill="white"/>
</svg>
