<svg width="30" height="30" viewBox="0 0 30 30" fill="none" xmlns="http://www.w3.org/2000/svg">
<path d="M15.0001 27.5C8.10762 27.5 2.50012 21.8925 2.50012 15C2.50012 8.10748 8.10762 2.49998 15.0001 2.49998C21.8926 2.49998 27.5001 8.10748 27.5001 15C27.5001 21.8925 21.8926 27.5 15.0001 27.5ZM15.0001 4.37498C9.14137 4.37498 4.37512 9.14123 4.37512 15C4.37512 20.8587 9.14137 25.625 15.0001 25.625C20.8589 25.625 25.6251 20.8587 25.6251 15C25.6251 9.14123 20.8589 4.37498 15.0001 4.37498Z" fill="white"/>
<path d="M15 6.25C14.4825 6.25 14.0625 5.83 14.0625 5.3125V0.9375C14.0625 0.42 14.4825 0 15 0C15.5175 0 15.9375 0.42 15.9375 0.9375V5.3125C15.9375 5.83 15.5175 6.25 15 6.25Z" fill="white"/>
<path d="M29.0624 15.9375H24.6874C24.1699 15.9375 23.7499 15.5175 23.7499 15C23.7499 14.4825 24.1699 14.0625 24.6874 14.0625H29.0624C29.5799 14.0625 29.9999 14.4825 29.9999 15C29.9999 15.5175 29.5799 15.9375 29.0624 15.9375Z" fill="white"/>
<path d="M15 30C14.4825 30 14.0625 29.58 14.0625 29.0625V24.6875C14.0625 24.17 14.4825 23.75 15 23.75C15.5175 23.75 15.9375 24.17 15.9375 24.6875V29.0625C15.9375 29.58 15.5175 30 15 30Z" fill="white"/>
<path d="M5.3125 15.9375H0.9375C0.42 15.9375 0 15.5175 0 15C0 14.4825 0.42 14.0625 0.9375 14.0625H5.3125C5.83 14.0625 6.25 14.4825 6.25 15C6.25 15.5175 5.83 15.9375 5.3125 15.9375Z" fill="white"/>
<path d="M15 18.75C12.9325 18.75 11.25 17.0675 11.25 15C11.25 12.9325 12.9325 11.25 15 11.25C17.0675 11.25 18.75 12.9325 18.75 15C18.75 17.0675 17.0675 18.75 15 18.75ZM15 13.125C13.9662 13.125 13.125 13.9662 13.125 15C13.125 16.0337 13.9662 16.875 15 16.875C16.0337 16.875 16.875 16.0337 16.875 15C16.875 13.9662 16.0337 13.125 15 13.125Z" fill="white"/>
</svg>
