<svg width="18" height="18" viewBox="0 0 18 18" fill="none" xmlns="http://www.w3.org/2000/svg">
<path d="M17.6977 7.60108L16.177 6.21554V1.62121C16.177 1.32889 15.9401 1.09186 15.6477 1.09186H11.9874C11.6951 1.09186 11.4581 1.32885 11.4581 1.62121V1.91561L9.62165 0.242279C9.26717 -0.0807715 8.73262 -0.0807363 8.37828 0.242244L0.302268 7.60111C0.0183462 7.85986 -0.0754857 8.25853 0.0632406 8.61674C0.202002 8.97495 0.539853 9.20638 0.924005 9.20638H2.21385V16.5794C2.21385 16.8717 2.45084 17.1087 2.7432 17.1087H7.16982C7.46214 17.1087 7.69917 16.8717 7.69917 16.5794V12.1027H10.3008V16.5794C10.3008 16.8717 10.5377 17.1088 10.8301 17.1088H15.2566C15.5489 17.1088 15.7859 16.8718 15.7859 16.5794V9.20642H17.076C17.4601 9.20642 17.798 8.97495 17.9368 8.61678C18.0754 8.25853 17.9816 7.85986 17.6977 7.60108ZM15.2566 8.14772C14.9642 8.14772 14.7272 8.38471 14.7272 8.67707V16.0501H11.3595V11.5734C11.3595 11.2811 11.1225 11.044 10.8301 11.044H7.16982C6.8775 11.044 6.64047 11.281 6.64047 11.5734V16.0501H3.27251V8.67707C3.27251 8.38474 3.03552 8.14772 2.74316 8.14772H1.27423L9.00002 1.10804L11.631 3.50538C11.7859 3.64656 12.0096 3.68295 12.2013 3.59833C12.3931 3.5136 12.5168 3.32369 12.5168 3.11409V2.15056H15.1184V6.44932C15.1184 6.59828 15.1811 6.74028 15.2913 6.84061L16.7257 8.14772H15.2566Z" fill="black"/>
</svg>
