<svg width="140" height="48" viewBox="0 0 271 48" fill="none" xmlns="http://www.w3.org/2000/svg">
<g clip-path="url(#clip0)">
<path d="M0.440313 32.1942C1.67392 31.9976 2.51088 31.6007 2.95119 30.9999C3.3915 30.3991 3.60984 29.3651 3.60984 27.9014L3.65715 11.5603C3.65715 10.519 3.56617 9.81992 3.38786 9.4631C3.20956 9.10627 2.86022 8.92786 2.33985 8.92786C2.04873 8.92786 1.78673 8.94607 1.56111 8.9752C1.33186 9.00797 1.17174 9.02253 1.07349 9.02253L0.48762 8.33801L0.927933 4.48578C1.70667 4.51855 3.18772 4.55132 5.36381 4.58409C7.53991 4.61686 9.85064 4.63142 12.2851 4.63142C15.0471 4.63142 17.7108 4.57681 20.2799 4.46029C22.8453 4.34742 24.7485 4.20906 25.9821 4.04521L26.6153 4.8244C26.5498 5.41061 26.4115 6.70318 26.2005 8.70212C25.9894 10.7011 25.8366 12.6454 25.7383 14.5314L19.0099 14.921C19.0099 14.79 19.0244 14.5569 19.0572 14.2147C19.0899 13.8724 19.1045 13.5229 19.1045 13.166C19.1045 12.1247 18.8534 11.4183 18.3476 11.0433C17.8418 10.6683 16.8775 10.4826 15.4473 10.4826C14.7632 10.4826 14.3193 10.5627 14.1082 10.7265C13.8972 10.8904 13.7916 11.2472 13.7916 11.8007L13.4496 18.1434L17.4961 18.1907C18.082 18.1907 18.9844 18.1506 20.2035 18.0705C21.4225 17.9904 22.2267 17.9322 22.6161 17.8994L23.202 18.5839L22.5178 24.1948C22.1285 24.162 21.397 24.1293 20.3235 24.0965C19.2501 24.0637 18.1147 24.0492 16.9102 24.0492C16.1315 24.0492 14.9124 24.1475 13.2531 24.3404L13.2058 27.6574C13.2058 28.8299 13.344 29.609 13.6206 29.9986C13.9008 30.3882 14.4466 30.5848 15.2581 30.5848C15.8767 30.5848 16.459 30.5302 17.0121 30.4137C17.5652 30.3008 17.9218 30.228 18.0856 30.1952L18.8643 31.0727L18.2311 36.3413C17.6125 36.3413 16.499 36.3159 14.8906 36.2685C13.2822 36.2212 11.7465 36.1957 10.2837 36.1957C8.2022 36.1957 6.11708 36.2612 4.02104 36.3923C1.92501 36.5234 0.585871 36.6181 0 36.6836L0.440313 32.1942Z" fill="#FFB000"/>
<path d="M39.7555 35.8535C38.7949 35.2345 38.2527 34.357 38.1217 33.221L37.5358 32.977C36.5933 33.9201 35.6253 34.7575 34.6355 35.4894C33.6421 36.2212 32.8088 36.5853 32.1247 36.5853C30.8256 36.5853 29.6211 36.2212 28.5185 35.4894C27.4122 34.7575 26.5425 33.7562 25.9093 32.4891C25.2762 31.222 24.9596 29.8239 24.9596 28.2946C24.9596 27.2205 25.2434 26.2957 25.8111 25.5129C26.3788 24.7337 27.1357 24.2458 28.0781 24.0492L37.634 22.2942V22.2468C37.634 21.14 37.2774 20.2807 36.5605 19.6617C35.8437 19.0427 34.8721 18.7332 33.6348 18.7332C32.7906 18.7332 31.8481 18.9517 30.8074 19.3923C29.7666 19.8328 28.8423 20.3098 28.0272 20.8305L27.4413 20.5392L26.2223 16.636C28.14 15.6274 30.0978 14.7026 32.0955 13.8542C34.0933 13.0095 35.5162 12.5871 36.3604 12.5871C39.7737 12.5871 42.2409 13.2607 43.7693 14.6116C45.2977 15.9624 46.0618 17.6446 46.0618 19.6617C46.0618 20.2479 45.8653 21.7771 45.476 24.2458C45.1521 26.5214 44.9884 27.8723 44.9884 28.2946C44.9884 28.7825 45.1194 29.1794 45.3777 29.4889C45.6361 29.7984 45.9781 29.9513 46.4003 29.9513C46.8224 29.9513 47.3755 29.8202 48.056 29.5617L48.8857 30.8798C48.136 32.2452 47.2591 33.5305 46.2547 34.732C45.2467 35.9372 44.3697 36.6181 43.6237 36.7819C42.0044 36.7783 40.7126 36.4688 39.7555 35.8535ZM37.4885 30.046L37.5358 25.8515L34.0242 26.6307C33.7003 26.6962 33.4711 26.8018 33.3401 26.9474C33.2091 27.0931 33.1436 27.3443 33.1436 27.7048C33.1436 28.484 33.3219 29.1211 33.6785 29.6054C34.0351 30.0933 34.5082 30.3373 35.0904 30.3373C35.7818 30.3409 36.5787 30.2426 37.4885 30.046Z" fill="#FFB000"/>
<path d="M51.2619 31.5607C51.5348 31.2038 51.6731 30.5848 51.6731 29.7074V8.63294C51.6731 7.82099 51.6076 7.22021 51.4766 6.82698C51.3456 6.43739 51.12 6.16067 50.7925 5.99682C50.4031 5.83297 49.5079 5.75287 48.1106 5.75287L47.8668 5.41061L48.2561 1.75135C51.2473 1.36176 53.9693 1.00493 56.4219 0.67724C58.8746 0.353186 60.5085 0.123799 61.32 -0.00727844L61.7603 1.25981C60.6213 2.33392 60.0536 12.1211 60.0536 30.6249C60.0536 31.2111 60.1337 31.6189 60.2974 31.8447C60.4612 32.074 60.7523 32.1869 61.1744 32.1869L61.9531 32.1396L62.0987 32.4818L61.4655 36.4834C61.0107 36.4506 60.0682 36.3923 58.6381 36.3122C57.208 36.2321 56.069 36.1921 55.2247 36.1921C54.0566 36.1921 52.8376 36.2248 51.5676 36.2904C50.3012 36.3559 49.4715 36.4033 49.0822 36.436L49.6171 32.2415C50.4395 32.1469 50.9853 31.9175 51.2619 31.5607ZM60.4503 23.2663L63.8126 19.4141C64.1365 19.09 64.3549 18.8133 64.4713 18.5839C64.5841 18.3582 64.6423 18.1142 64.6423 17.8521C64.6423 17.4953 64.464 17.244 64.1074 17.0947C63.7508 16.9491 63.1322 16.8763 62.2552 16.8763L62.1096 16.6323L62.5499 13.0714C62.972 13.0714 63.8418 13.0896 65.1591 13.1187C66.4764 13.1515 67.9465 13.1661 69.5695 13.1661C70.9341 13.1661 72.1677 13.1515 73.2739 13.1187C74.3802 13.0859 75.108 13.0532 75.4682 13.0204L75.6138 13.2644L75.1261 17.4115C74.1182 17.9322 73.1757 18.5657 72.2987 19.3122C71.4217 20.0622 70.3664 21.0526 69.1292 22.2869L68.445 23.0187L71.469 29.0665C72.3132 30.8871 73.6123 31.9612 75.37 32.2852L75.6611 32.8205L75.2208 36.4287L71.7092 36.771C70.2136 36.9021 69.3366 36.9676 69.0782 36.9676C67.8737 36.8693 66.924 36.5343 66.2253 35.9663C65.5266 35.3983 64.8534 34.4152 64.202 33.0171L60.3011 24.8211L60.4503 23.2663Z" fill="#FFB000"/>
<path d="M78.5104 33.7052C76.4471 31.6553 75.4136 28.7461 75.4136 24.974C75.4136 22.5017 75.9267 20.3316 76.9493 18.4638C77.9718 16.5959 79.4201 15.1468 81.2869 14.1237C83.1537 13.1005 85.3407 12.5871 87.8443 12.5871C94.0196 12.5871 97.1054 15.8386 97.1054 22.3415C97.1054 23.2845 96.9744 24.3587 96.7161 25.5602L96.1811 26.0481H84.6275C84.7585 27.479 85.2279 28.5677 86.0394 29.3178C86.8509 30.0678 87.9717 30.4392 89.4018 30.4392C91.0247 30.4392 92.9607 29.9513 95.2023 28.9755L95.6426 29.2195L96.7161 32.8277C95.417 33.8363 93.8886 34.7466 92.1346 35.5585C90.3806 36.3705 88.7868 36.7783 87.3567 36.7783C83.5249 36.7783 80.5773 35.7551 78.5104 33.7052ZM88.4338 22.0466C88.6922 22.0138 88.8559 21.941 88.9214 21.8281C88.9869 21.7152 89.0197 21.4931 89.0197 21.1691C89.0197 19.0573 88.3683 17.9977 87.0692 17.9977C86.094 17.9977 85.4026 18.3327 84.9986 18.999C84.5911 19.6653 84.3909 20.7795 84.3909 22.3415L88.4338 22.0466Z" fill="#FFB000"/>
<path d="M102.717 36.4142C101.643 36.1702 100.792 35.919 100.158 35.6568C99.5253 35.3983 99.125 35.2163 98.9649 35.1216L98.4773 34.4371C98.7684 32.3872 99.0122 30.2899 99.2087 28.1453L103.11 27.8541C103.142 28.9282 103.525 29.8384 104.256 30.5849C104.987 31.3349 105.872 31.7063 106.912 31.7063C107.498 31.7063 107.968 31.5934 108.328 31.364C108.685 31.1383 108.863 30.8288 108.863 30.4356C108.863 29.9477 108.612 29.5253 108.106 29.1685C107.6 28.8117 106.538 28.3056 104.915 27.6574C102.866 26.8455 101.381 25.8843 100.453 24.781C99.5289 23.6741 99.0632 22.3087 99.0632 20.6848C99.0632 18.2126 100.093 16.2464 102.16 14.7827C104.223 13.319 106.992 12.5871 110.471 12.5871C111.578 12.5871 112.582 12.6599 113.495 12.8056C114.405 12.9512 115.111 13.0969 115.617 13.2462C116.119 13.3918 116.436 13.4974 116.567 13.5629L117.007 14.3931C116.941 14.7827 116.81 15.6529 116.617 17.0037C116.421 18.3546 116.261 19.7272 116.13 21.1254L112.229 21.322V21.1254C112.196 20.0185 111.96 19.1993 111.523 18.6604C111.086 18.1215 110.428 17.8557 109.547 17.8557C108.961 17.8557 108.499 17.9868 108.157 18.2453C107.815 18.5075 107.644 18.8643 107.644 19.3194C107.644 19.7418 107.822 20.1168 108.179 20.4409C108.535 20.7649 109.121 21.1072 109.933 21.464C111.981 22.3087 113.546 23.0916 114.638 23.8052C115.726 24.5225 116.483 25.2835 116.905 26.0991C117.327 26.911 117.538 27.9196 117.538 29.1248C117.538 30.5885 117.058 31.9066 116.101 33.0753C115.144 34.2478 113.808 35.158 112.102 35.8061C110.395 36.4579 108.452 36.7819 106.276 36.7819C104.976 36.7783 103.79 36.6581 102.717 36.4142Z" fill="#FFB000"/>
<path d="M122.851 35.2199C121.585 34.1786 120.951 32.653 120.951 30.6358V21.1218C120.951 19.953 120.799 19.1884 120.489 18.8279C120.18 18.4711 119.507 18.2927 118.466 18.2927L117.687 17.8521L118.077 14.3894C119.7 13.643 121.312 12.8129 122.902 11.9026C124.496 10.9923 125.809 10.2022 126.85 9.53592C127.891 8.86961 128.539 8.43996 128.801 8.24335L130.653 9.31746C130.62 9.54684 130.522 10.0966 130.362 10.9741C130.198 11.8516 130.053 12.9257 129.921 14.1928L134.015 14.0472L134.259 14.3894L133.724 18.5366L129.532 18.391C129.368 21.1545 129.288 24.0492 129.288 27.0749C129.288 29.2195 130.067 30.2936 131.628 30.2936C132.083 30.2936 132.552 30.2353 133.04 30.1224C133.528 30.0096 133.852 29.9185 134.015 29.853L134.794 31.8046C134.565 32.0668 134.055 32.5947 133.258 33.3885C132.461 34.1859 131.585 34.9505 130.627 35.6823C129.667 36.4142 128.914 36.7783 128.36 36.7783C125.951 36.7783 124.117 36.2576 122.851 35.2199Z" fill="#FFB000"/>
<path d="M149.979 35.8535C149.022 35.2345 148.477 34.357 148.346 33.221L147.76 32.977C146.817 33.9201 145.849 34.7575 144.859 35.4894C143.866 36.2212 143.033 36.5853 142.349 36.5853C141.049 36.5853 139.845 36.2212 138.742 35.4894C137.636 34.7575 136.766 33.7562 136.133 32.4891C135.5 31.222 135.183 29.8239 135.183 28.2946C135.183 27.2205 135.467 26.2957 136.035 25.5129C136.603 24.7337 137.36 24.2458 138.302 24.0492L147.858 22.2942V22.2468C147.858 21.14 147.501 20.2807 146.784 19.6617C146.068 19.0427 145.092 18.7332 143.859 18.7332C143.014 18.7332 142.072 18.9517 141.031 19.3923C139.99 19.8328 139.066 20.3098 138.251 20.8305L137.665 20.5392L136.446 16.636C138.364 15.6274 140.322 14.7026 142.319 13.8542C144.317 13.0095 145.74 12.5871 146.584 12.5871C149.998 12.5871 152.465 13.2607 153.993 14.6116C155.522 15.9624 156.286 17.6446 156.286 19.6617C156.286 20.2479 156.089 21.7771 155.7 24.2458C155.376 26.5214 155.212 27.8723 155.212 28.2946C155.212 28.7825 155.343 29.1794 155.602 29.4889C155.86 29.7984 156.202 29.9513 156.624 29.9513C157.046 29.9513 157.599 29.8202 158.28 29.5617L159.11 30.8798C158.36 32.2452 157.483 33.5305 156.479 34.732C155.471 35.9372 154.594 36.6181 153.848 36.7819C152.228 36.7783 150.936 36.4688 149.979 35.8535ZM147.712 30.046L147.76 25.8515L144.248 26.6307C143.924 26.6962 143.695 26.8018 143.564 26.9474C143.433 27.0931 143.367 27.3443 143.367 27.7048C143.367 28.484 143.546 29.1211 143.902 29.6054C144.259 30.0933 144.732 30.3373 145.314 30.3373C146.006 30.3409 146.803 30.2426 147.712 30.046Z" fill="#FFB000"/>
<path d="M168.993 31.7791C169.888 31.9903 171.26 32.176 173.112 32.3398C175.387 32.5365 177.286 32.7877 178.814 33.0972C180.343 33.4067 181.656 33.9747 182.763 34.8048C183.869 35.635 184.418 36.8293 184.418 38.3913C184.418 40.0479 183.76 41.6172 182.442 43.0991C181.125 44.5774 179.386 45.7644 177.228 46.6601C175.066 47.5558 172.799 48 170.427 48C168.509 48 166.788 47.6905 165.259 47.0715C163.731 46.4526 162.537 45.5933 161.675 44.4864C160.813 43.3795 160.383 42.1124 160.383 40.6815C161.195 40.0625 162.836 39.185 165.307 38.049V37.7067C163.942 37.4446 162.861 36.862 162.064 35.9518C161.267 35.0415 160.787 33.8873 160.627 32.4891C161.766 31.1893 163.065 30.035 164.528 29.0265V28.5386C163.327 27.8249 162.399 26.8819 161.748 25.7095C161.096 24.5371 160.773 23.1899 160.773 21.6606C160.773 18.8643 161.795 16.636 163.844 14.9793C165.893 13.3226 168.622 12.4925 172.035 12.4925C172.719 12.4925 173.742 12.5726 175.106 12.7364C176.082 12.8675 176.828 12.933 177.348 12.933C178.127 12.9003 179.193 12.6891 180.539 12.2995C181.889 11.9099 183.163 11.5021 184.367 11.0797L184.757 11.371L184.073 16.2974C182.901 16.3957 181.929 16.443 181.147 16.443L180.951 16.7343C182.217 18.0341 182.85 19.5962 182.85 21.4167C182.85 23.1389 182.37 24.6609 181.413 25.9789C180.456 27.297 179.106 28.3201 177.366 29.052C175.627 29.7838 173.622 30.1479 171.347 30.1479C170.11 30.1479 169.007 30.0496 168.032 29.8566C167.77 30.1479 167.643 30.4246 167.643 30.6868C167.65 31.2038 168.098 31.5679 168.993 31.7791ZM176.183 40.7288C176.183 40.372 176.045 40.1026 175.769 39.9242C175.492 39.7457 174.932 39.5673 174.087 39.3889C173.243 39.2105 171.715 38.9593 169.506 38.6316C169.182 39.378 169.018 40.0479 169.018 40.6305C169.018 41.4097 169.302 41.9886 169.87 42.3637C170.438 42.7387 171.325 42.9244 172.526 42.9244C174.964 42.9244 176.183 42.1925 176.183 40.7288ZM170.088 18.3181C169.732 18.8861 169.553 19.953 169.553 21.5113C169.553 22.844 169.724 23.8598 170.066 24.5589C170.408 25.258 171.016 25.6075 171.893 25.6075C172.705 25.6075 173.291 25.2908 173.647 24.6572C174.004 24.0237 174.182 23.0078 174.182 21.6097C174.182 20.2443 173.993 19.2102 173.622 18.5111C173.247 17.812 172.606 17.4625 171.697 17.4625C170.98 17.4625 170.445 17.7465 170.088 18.3181Z" fill="#FFB000"/>
<path d="M187.832 31.5606C188.188 31.2038 188.367 30.5703 188.367 29.66V21.2201C188.367 20.0476 188.221 19.2867 187.926 18.9262C187.635 18.5694 187.002 18.391 186.027 18.391H185.248L185.004 18.0487L185.394 14.3894C187.734 14.0654 190.066 13.7158 192.388 13.3408C194.709 12.9658 196.216 12.7146 196.896 12.5835L197.482 13.1697C197.417 13.3991 197.319 13.9343 197.191 14.779C197.06 15.6238 196.962 16.4357 196.9 17.2185L197.289 17.4152C198.363 15.9187 199.451 14.8227 200.557 14.1236C201.663 13.4246 202.85 13.075 204.116 13.075C204.538 13.075 204.928 13.0932 205.288 13.1224C205.644 13.1551 205.888 13.1879 206.019 13.2207L206.263 13.8069C206.165 14.4914 205.972 15.9769 205.677 18.2708C205.382 20.5647 205.171 22.7821 205.044 24.9303L200.463 25.1742C200.463 23.3865 200.364 22.1922 200.171 21.5878C199.975 20.987 199.586 20.6848 199 20.6848C198.414 20.6848 197.813 20.947 197.195 21.464C197.129 22.3087 197.031 23.7069 196.904 25.6585C196.773 27.6101 196.693 29.1393 196.66 30.2426C196.66 31.2839 197.129 31.8046 198.075 31.8046C198.53 31.8046 199.058 31.7718 199.658 31.7063C200.259 31.6408 200.659 31.5934 200.852 31.5606L201.143 31.9502L200.459 36.487C199.906 36.4542 198.745 36.396 196.973 36.3159C195.201 36.2358 193.731 36.1957 192.562 36.1957C191.296 36.1957 189.881 36.2285 188.319 36.294C186.758 36.3596 185.75 36.4069 185.295 36.4397L185.881 32.1942C186.824 32.1287 187.475 31.9175 187.832 31.5606Z" fill="#FFB000"/>
<path d="M221.154 35.8535C220.197 35.2345 219.651 34.357 219.52 33.221L218.934 32.977C217.991 33.9201 217.023 34.7575 216.034 35.4894C215.04 36.2212 214.207 36.5853 213.523 36.5853C212.224 36.5853 211.019 36.2212 209.917 35.4894C208.81 34.7575 207.941 33.7562 207.307 32.4891C206.674 31.222 206.358 29.8239 206.358 28.2946C206.358 27.2205 206.642 26.2957 207.209 25.5129C207.777 24.7337 208.534 24.2458 209.476 24.0492L219.032 22.2942V22.2468C219.032 21.14 218.676 20.2807 217.959 19.6617C217.242 19.0427 216.267 18.7332 215.033 18.7332C214.189 18.7332 213.246 18.9517 212.205 19.3923C211.165 19.8328 210.24 20.3098 209.425 20.8305L208.839 20.5392L207.62 16.636C209.538 15.6274 211.496 14.7026 213.494 13.8542C215.491 13.0095 216.914 12.5871 217.758 12.5871C221.172 12.5871 223.639 13.2607 225.167 14.6116C226.696 15.9624 227.46 17.6446 227.46 19.6617C227.46 20.2479 227.263 21.7771 226.874 24.2458C226.55 26.5214 226.386 27.8723 226.386 28.2946C226.386 28.7825 226.517 29.1794 226.776 29.4889C227.034 29.7984 227.376 29.9513 227.798 29.9513C228.22 29.9513 228.774 29.8202 229.454 29.5617L230.284 30.8798C229.534 32.2452 228.657 33.5305 227.653 34.732C226.645 35.9372 225.768 36.6181 225.022 36.7819C223.403 36.7783 222.111 36.4688 221.154 35.8535ZM218.887 30.046L218.934 25.8515L215.426 26.6343C215.102 26.6999 214.873 26.8054 214.742 26.9511C214.611 27.0967 214.545 27.348 214.545 27.7084C214.545 28.4876 214.724 29.1248 215.08 29.6091C215.437 30.097 215.91 30.3409 216.492 30.3409C217.18 30.3409 217.977 30.2426 218.887 30.046Z" fill="#FFB000"/>
<path d="M246.725 31.4878C246.983 31.1456 247.132 30.603 247.165 29.853L247.263 22.975C247.296 21.7407 247.158 20.8778 246.848 20.3899C246.539 19.902 245.979 19.658 245.167 19.658C244.843 19.658 244.508 19.7564 244.166 19.9493C243.824 20.1459 243.409 20.4045 242.922 20.7285C242.565 26.161 242.387 29.3942 242.387 30.4356C242.387 31.0545 242.467 31.4696 242.631 31.6808C242.795 31.892 243.1 31.9976 243.559 31.9976L244.337 31.9502L244.483 32.1942L243.897 36.3887C243.475 36.3559 242.678 36.3159 241.51 36.2685C240.342 36.2212 239.152 36.1957 237.951 36.1957C236.685 36.1957 235.32 36.2285 233.857 36.294C232.394 36.3596 231.452 36.4069 231.03 36.4397L231.616 32.1942C232.558 32.1287 233.209 31.9175 233.566 31.5606C233.923 31.2038 234.101 30.5703 234.101 29.66V21.2201C234.101 20.0804 233.948 19.3267 233.639 18.9517C233.33 18.5767 232.704 18.391 231.761 18.391H230.982L230.739 18.0487L231.128 14.3894C233.468 14.0654 235.8 13.7158 238.122 13.3408C240.444 12.9658 241.95 12.7146 242.631 12.5835L243.217 13.1697C243.151 13.3991 243.053 13.8761 242.926 14.6079C242.795 15.3398 242.696 16.0461 242.634 16.7306L242.831 16.8763C243.999 15.7694 245.131 14.779 246.219 13.9015C247.307 13.024 247.998 12.5835 248.289 12.5835C252.58 12.5835 255.131 14.0144 255.942 16.8763C257.048 15.8022 258.162 14.8191 259.283 13.927C260.403 13.0313 261.109 12.5871 261.404 12.5871C264.035 12.5871 266.044 13.1333 267.423 14.222C268.802 15.3106 269.494 16.8799 269.494 18.9298C269.494 19.709 269.297 21.6934 268.908 24.8793C268.551 27.6756 268.373 29.4962 268.373 30.3409C268.373 31.0254 268.471 31.4951 268.664 31.7573C268.86 32.0194 269.199 32.1469 269.686 32.1469L270.905 32.0995L271.004 32.2961L270.469 36.3923C269.981 36.3596 269.104 36.3195 267.838 36.2722C266.571 36.2248 265.334 36.1993 264.133 36.1993C263.027 36.1993 261.899 36.2248 260.745 36.2722C259.592 36.3195 258.788 36.345 258.333 36.345L258.722 32.0995C259.275 32.034 259.665 31.8483 259.89 31.5388C260.116 31.2293 260.247 30.6686 260.28 29.8566L260.378 22.9787C260.411 21.7444 260.272 20.8814 259.963 20.3935C259.654 19.9056 259.093 19.6617 258.282 19.6617C257.696 19.6617 256.965 20.0039 256.088 20.6848L255.403 30.3445C255.403 31.0291 255.494 31.4987 255.673 31.7609C255.851 32.0231 256.168 32.1505 256.623 32.1505L257.598 32.1032L257.696 32.2998L257.063 36.396C256.608 36.3632 255.778 36.3231 254.577 36.2758C253.377 36.2285 252.19 36.203 251.019 36.203C249.912 36.203 248.759 36.2285 247.558 36.2758C246.353 36.3231 245.527 36.3486 245.072 36.3486L245.513 32.1032C246.055 32.0303 246.463 31.8264 246.725 31.4878Z" fill="#FFB000"/>
</g>
<defs>
<clipPath id="clip0">
<path d="M0 0H271V48H0V0Z" fill="white"/>
</clipPath>
</defs>
</svg>
