<svg width="18" height="18" viewBox="0 0 18 18" fill="none" xmlns="http://www.w3.org/2000/svg">
<g clip-path="url(#clip0)">
<path d="M11.7132 17.4667C11.7122 14.4805 10.5489 11.6732 8.43733 9.56166C6.3248 7.44914 3.51616 6.28583 0.528715 6.28583C0.52844 6.28583 0.528166 6.28583 0.527891 6.28583C0.527754 6.28583 0.527479 6.28583 0.527204 6.28583C0.236068 6.28583 0 6.5219 0 6.81303V10.1648C0 10.4559 0.236068 10.692 0.527204 10.692C4.26474 10.692 7.3056 13.7327 7.3056 17.4704C7.3056 17.6907 7.44087 17.8792 7.63286 17.9581C7.69617 17.985 7.76593 18.0001 7.83913 18.0001H7.83981L11.146 17.9956C11.1593 17.9965 11.1725 17.9975 11.1861 17.9975C11.4772 17.9975 11.7132 17.7616 11.7132 17.4704C11.7132 17.4696 11.7132 17.4689 11.7132 17.4681C11.7132 17.4679 11.7132 17.4678 11.7132 17.4675C11.7132 17.4673 11.7132 17.467 11.7132 17.4667V17.4667ZM6.06567 11.9318C4.71133 10.5773 2.94817 9.78056 1.05441 9.65546V7.35369C3.56271 7.481 5.90293 8.51824 7.69177 10.3072C9.48007 12.0954 10.5172 14.4345 10.6452 16.9418L8.34216 16.945C8.21747 15.0505 7.42055 13.2867 6.06567 11.9318V11.9318Z" fill="black"/>
<path d="M2.35721 13.286C1.05754 13.286 0.000244141 14.3433 0.000244141 15.643C0.000244141 16.9427 1.05754 18 2.35721 18C3.65689 18 4.71418 16.9427 4.71418 15.643C4.71418 14.3433 3.65689 13.286 2.35721 13.286V13.286ZM2.35721 16.9457C1.63899 16.9457 1.05452 16.3612 1.05452 15.643C1.05452 14.9246 1.63899 14.3403 2.35721 14.3403C3.07544 14.3403 3.65991 14.9246 3.65991 15.643C3.65991 16.3612 3.07558 16.9457 2.35721 16.9457Z" fill="black"/>
<path d="M17.9844 17.4528C17.9844 17.4527 17.9844 17.4525 17.9844 17.4523C17.9839 15.0976 17.5222 12.813 16.6124 10.6619C15.733 8.58304 14.4744 6.71619 12.8714 5.11315C11.2684 3.50998 9.40138 2.25136 7.3225 1.37205C5.17001 0.461699 2.88363 0 0.527204 0C0.236068 0 0 0.236068 0 0.527204V3.84039C0 4.13153 0.236068 4.3676 0.527204 4.3676C2.29449 4.3676 4.00876 4.71367 5.62209 5.39605C7.18077 6.05523 8.5807 6.99909 9.78301 8.20154C10.9853 9.40371 11.9292 10.8036 12.5884 12.3623C13.2709 13.9758 13.6168 15.6899 13.6168 17.4572C13.6168 17.6578 13.729 17.8324 13.8939 17.9214C13.9706 17.9648 14.0589 17.9899 14.1532 17.9899H14.1546L17.4023 17.9815C17.4204 17.9835 17.4387 17.9844 17.4572 17.9844C17.7483 17.9844 17.9844 17.7483 17.9844 17.4572C17.9844 17.456 17.9844 17.4547 17.9844 17.4534C17.9844 17.4532 17.9844 17.4531 17.9844 17.4528V17.4528ZM13.5595 11.9516C12.8471 10.2672 11.8273 8.7547 10.5286 7.45598C9.22972 6.15713 7.71718 5.13732 6.03284 4.425C4.44972 3.75539 2.77747 3.38542 1.05441 3.32294V1.06292C3.08275 1.12637 5.05081 1.55593 6.91175 2.3431C8.86497 3.16927 10.6192 4.35208 12.1258 5.85871C13.6323 7.36521 14.8151 9.11944 15.6413 11.0727C16.4282 12.9332 16.8579 14.9007 16.9215 16.9285L14.6616 16.9343C14.5995 15.2097 14.2296 13.5359 13.5595 11.9516V11.9516Z" fill="black"/>
</g>
<defs>
<clipPath id="rss">
<rect width="17.9999" height="18" fill="white"/>
</clipPath>
</defs>
</svg>
