<svg width="23" height="23" viewBox="0 0 23 23" fill="none" xmlns="http://www.w3.org/2000/svg">
<path d="M16.8786 14.8466C18.0104 13.3011 18.6874 11.4026 18.6874 9.34452C18.6874 4.19257 14.4956 0.000793457 9.34369 0.000793457C4.19173 0.000793457 0 4.19257 0 9.34452C0 14.4965 4.19177 18.6883 9.34373 18.6883C11.4018 18.6883 13.3004 18.0112 14.846 16.8794L20.9673 23.0007L23 20.968L16.8786 14.8466ZM9.34373 15.8132C5.77666 15.8132 2.87501 12.9116 2.87501 9.34452C2.87501 5.77745 5.77666 2.8758 9.34373 2.8758C12.9108 2.8758 15.8124 5.77745 15.8124 9.34452C15.8124 12.9116 12.9108 15.8132 9.34373 15.8132Z" fill="black"/>
</svg>
