<svg width="29" height="28" viewBox="0 0 29 28" fill="none" xmlns="http://www.w3.org/2000/svg">
<path d="M12.1614 23.9462C9.55352 23.9462 7.43187 21.8248 7.43187 19.2168C7.43187 16.6089 9.55352 14.4875 12.1614 14.4875C14.7692 14.4875 16.8908 16.6089 16.8908 19.2168C16.8908 21.8248 14.7692 23.9462 12.1614 23.9462ZM12.1614 16.5144C10.6709 16.5144 9.45876 17.7263 9.45876 19.2168C9.45876 20.7072 10.6709 21.9194 12.1614 21.9194C13.6518 21.9194 14.864 20.7072 14.864 19.2168C14.864 17.7263 13.6518 16.5144 12.1614 16.5144Z" fill="black"/>
<path d="M21.2823 28H3.04033C1.3633 28 0 26.6367 0 24.9597V14.8252C0 13.1482 1.3633 11.7849 3.04033 11.7849H6.13064L7.50359 9.03777C7.90614 8.23241 8.71695 7.73113 9.61831 7.73113H14.7043C15.6057 7.73113 16.4165 8.23241 16.819 9.03777L18.192 11.7849H21.2823C22.9593 11.7849 24.3226 13.1482 24.3226 14.8252V24.9597C24.3226 26.6367 22.9593 28 21.2823 28ZM3.04033 13.8118C2.48091 13.8118 2.02689 14.2658 2.02689 14.8252V24.9597C2.02689 25.5191 2.48091 25.9731 3.04033 25.9731H21.2823C21.8417 25.9731 22.2957 25.5191 22.2957 24.9597V14.8252C22.2957 14.2658 21.8417 13.8118 21.2823 13.8118H17.5663C17.1825 13.8118 16.8312 13.5943 16.6597 13.2511L15.0057 9.94458C14.949 9.82953 14.8327 9.75802 14.7043 9.75802H9.61831C9.48989 9.75802 9.37361 9.82953 9.31546 9.94458L7.66293 13.2511C7.49146 13.5943 7.14012 13.8118 6.75637 13.8118H3.04033Z" fill="black"/>
<path d="M10.9352 2.9207L14.3075 0.222928C14.4953 0.0729894 14.7182 -1.9489e-08 14.9412 0C15.2383 2.5978e-08 15.533 0.129897 15.7329 0.379793C16.083 0.817483 16.0128 1.4541 15.5748 1.80396L14.3133 2.81373C22.2419 3.46366 28.116 6.89089 28.116 11.1479C28.116 12.4236 27.9052 13.387 26.8269 14.5316C26.4417 14.9396 25.8013 14.9572 25.3931 14.5747C24.9866 14.1909 24.9663 13.5491 25.35 13.1411C25.9825 12.4721 26.0891 12.0559 26.0891 11.1479C26.0891 8.4291 21.5983 5.54188 14.6318 4.87329L15.5748 5.62811C16.0113 5.97797 16.0815 6.61459 15.7329 7.05228C15.3843 7.48873 14.7479 7.56024 14.3088 7.21038L10.9307 4.50779C10.9293 4.50668 10.9279 4.50557 10.9266 4.50445C10.7158 4.33402 10.5747 4.08085 10.5527 3.7945C10.5507 3.7685 10.5497 3.74233 10.5497 3.71604C10.5497 3.68866 10.5508 3.66141 10.553 3.63437C10.576 3.34543 10.7205 3.09053 10.9352 2.9207Z" fill="black"/>
</svg>
