<svg width="23" height="23" viewBox="0 0 23 23" fill="none" xmlns="http://www.w3.org/2000/svg">
<path d="M11.5051 8.57166L3.01225 0.367626C2.7672 0.13052 2.44027 0 2.09127 0C1.74247 0 1.41554 0.13052 1.17029 0.367625L0.390034 1.1212C-0.117686 1.61168 -0.117686 2.41014 0.390034 2.90043L9.03773 11.2545C9.02119 11.3359 9.01285 11.4194 9.01309 11.5043C9.01286 11.5839 9.02012 11.6624 9.03456 11.7389L0.38016 20.0998C0.134914 20.3361 2.9424e-08 20.6521 0 20.9891C-2.94385e-08 21.3262 0.134914 21.6421 0.38016 21.8788L1.16061 22.6324C1.40547 22.8695 1.73279 23 2.08159 23C2.4304 23 2.75733 22.8695 3.00238 22.6324L11.4949 14.4283L19.9878 22.6324C20.2329 22.8695 20.5598 23 20.9088 23C21.2576 23 21.5845 22.8695 21.8298 22.6324L22.61 21.8788C23.1178 21.3883 23.1178 20.5899 22.61 20.0996L13.9623 11.7455C13.9789 11.6641 13.9872 11.5806 13.987 11.4957C13.9872 11.4161 13.9799 11.3376 13.9655 11.2611L22.6199 2.90024C22.8652 2.66389 23.0001 2.34787 23.0001 2.01091C23.0001 1.67376 22.8652 1.35793 22.6199 1.1212L21.8395 0.367626C21.5946 0.13052 21.2673 0 20.9185 0C20.5697 0 20.2427 0.13052 19.9977 0.367626L11.5051 8.57166Z" fill="black"/>
</svg>
